<svg id="trace" xmlns="http://www.w3.org/2000/svg" viewBox="0 0 114.92 204.21"><title>cupcake</title><rect x="54.17" y="57.21" width="14" height="54" style="fill:#3fa9f5"/><path d="M521.21,211.45c-8.74,15.76-18.21,16.55-24,11.41-9.35-8.32-10.22-18.86-22.9.81-4.34,6.73-12.43,2.25-17-1.75A19.66,19.66,0,0,1,452,200.63C460.2,176.82,480.39,160,504,160c23.15,0,43,16.18,51.55,39.27a19.16,19.16,0,0,1-8.67,23.5c-6.49,3.48-14.4,3.25-20.48-11a2.87,2.87,0,0,0-2.77-1.74h-.08A2.83,2.83,0,0,0,521.21,211.45Z" transform="translate(-441.83 -60.79)" style="fill:#ff7bac"/><path d="M443.5,209.5" transform="translate(-441.83 -60.79)" style="fill:none;stroke:#000;stroke-miterlimit:10;stroke-width:8px"/><path d="M515.21,209.45c-8.74,15.76-18.21,16.55-24,11.41-9.35-8.32-10.22-18.86-22.9.81-4.34,6.73-12.43,2.25-17-1.75A19.66,19.66,0,0,1,446,198.63C454.2,174.82,474.39,158,498,158c23.15,0,43,16.18,51.55,39.27a19.16,19.16,0,0,1-8.67,23.5c-6.49,3.48-14.4,3.25-20.48-11a2.87,2.87,0,0,0-2.77-1.74h-.08A2.83,2.83,0,0,0,515.21,209.45Z" transform="translate(-441.83 -60.79)" style="fill:none;stroke:#575757;stroke-miterlimit:10;stroke-width:6px"/><polyline points="6.8 156.19 11.17 201.22 100.17 201.22 104.63 155.38" style="fill:none;stroke:#575757;stroke-miterlimit:10;stroke-width:6px"/><line x1="80.17" y1="201.21" x2="80.17" y2="152.21" style="fill:none;stroke:#575757;stroke-miterlimit:10;stroke-width:6px"/><line x1="33.17" y1="203.21" x2="33.17" y2="152.21" style="fill:none;stroke:#575757;stroke-miterlimit:10;stroke-width:6px"/><line x1="56.17" y1="203.21" x2="56.17" y2="163.21" style="fill:none;stroke:#575757;stroke-miterlimit:10;stroke-width:6px"/><rect x="49.03" y="51.21" width="14" height="54" style="fill:none;stroke:#575757;stroke-miterlimit:10;stroke-width:6px"/><path d="M510.22,85.21c0,.86-.07,13.29-8.75,15.92-7.08,2.15-15.32-3.58-15.93-8.75-.52-4.42,4.78-6.15,7-12.74s-.19-13.35-2.55-18c3.44,1.15,12.43,4.7,17.36,13.69A20.19,20.19,0,0,1,510.22,85.21Z" transform="translate(-441.83 -60.79)" style="fill:#fbb03b;stroke:#fbb03b;stroke-miterlimit:10"/><line x1="73.33" y1="118.87" x2="80.01" y2="116.56" style="fill:none;stroke:#fff;stroke-linecap:round;stroke-miterlimit:10"/><line x1="37.17" y1="131.21" x2="42.17" y2="136.21" style="fill:none;stroke:#fff;stroke-linecap:round;stroke-miterlimit:10"/><line x1="60.24" y1="134.55" x2="67.11" y2="132.88" style="fill:none;stroke:#fff;stroke-linecap:round;stroke-miterlimit:10"/><line x1="81.17" y1="132.21" x2="86.17" y2="137.21" style="fill:none;stroke:#fff;stroke-linecap:round;stroke-miterlimit:10"/><line x1="51.53" y1="120.08" x2="57.81" y2="123.34" style="fill:none;stroke:#fff;stroke-linecap:round;stroke-miterlimit:10"/><line x1="38.88" y1="118.95" x2="34.46" y2="124.48" style="fill:none;stroke:#fff;stroke-linecap:round;stroke-miterlimit:10"/><line x1="24.53" y1="133.08" x2="30.81" y2="136.34" style="fill:none;stroke:#fff;stroke-linecap:round;stroke-miterlimit:10"/><line x1="20.86" y1="137.68" x2="24.49" y2="143.75" style="fill:none;stroke:#fff;stroke-linecap:round;stroke-miterlimit:10"/><line x1="52.28" y1="142.4" x2="59.22" y2="141.04" style="fill:none;stroke:#fff;stroke-linecap:round;stroke-miterlimit:10"/></svg>