<svg id="trace" xmlns="http://www.w3.org/2000/svg" viewBox="0 0 395 349.25"><title>fireside_icon</title><path d="M502,1603.08c24-65.08-41-86.45-41-86.45,20.35,27.3,5,54.6,4.05,56.26l-.12.14c-93.61,80.42-36.84,114.62-15.79,123.65L639.26,1698C681.67,1593.81,612,1536.06,612,1536.06s20,38.85-38,62.17l11-3.31c34.22-113.84-71-129.78-71-129.78,32.26,9.07,24.88,39.85,21.92,48.94a8.45,8.45,0,0,1-2.87,4c-15.35,11.94-24.2,23-29.24,32.27" transform="translate(-330.5 -1450.04)" style="fill:#f15a24;stroke:#f15a24;stroke-linecap:round;stroke-linejoin:round;stroke-width:0.75px"/><path d="M466.93,1695c-1.55-16-.7-53.44,39.07-64.5,0,0-22,38.12,0,53.19,0,0,58-41.66,30-80.67a84.34,84.34,0,0,1,34.7,37.65,6.79,6.79,0,0,1,.46,1.45l6.41,34.58a101.31,101.31,0,0,1-2.9,20.32Z" transform="translate(-330.5 -1450.04)" style="fill:#fbb03b"/><path d="M683.29,1799.29l-293-3.7c-10.71-.13-19.18-20.3-19.23-45.39v-.12c0-.52,0-1,0-1.54.32-25.84,9.46-46.68,20.41-46.54l295,3.72v.31a10.53,10.53,0,0,0-1.6.57l1.6-.57a8.38,8.38,0,0,1,2.28-.28c10.94.13,19.54,21.2,19.22,47-.3,23.84-8.1,43.43-17.9,46.21Z" transform="translate(-330.5 -1450.04)" style="fill:#a67c52"/><path d="M676.85,1790.67a8.49,8.49,0,0,0,2.24.33c10.82.14,19.86-20.48,20.18-46s-8.19-46.41-19-46.54a8.17,8.17,0,0,0-2.25.28" transform="translate(-330.5 -1450.04)" style="fill:none;stroke:#000;stroke-miterlimit:10;stroke-width:10px"/><path d="M660.07,1744.46c-.3,23.77,7,43.47,16.78,46.21v.3l-291.75-3.68c-10.82-.13-19.34-21-19-46.54s9.36-46.18,20.18-46L678,1698.39v.31C668.21,1701.19,660.37,1720.69,660.07,1744.46Z" transform="translate(-330.5 -1450.04)" style="fill:none;stroke:#000;stroke-miterlimit:10;stroke-width:10px"/><line x1="42.42" y1="294.36" x2="81.48" y2="294.67" style="fill:none;stroke:#000;stroke-linecap:round;stroke-miterlimit:10;stroke-width:10px"/><line x1="55.55" y1="277.89" x2="133.04" y2="277.89" style="fill:none;stroke:#000;stroke-linecap:round;stroke-miterlimit:10;stroke-width:10px"/><line x1="143.05" y1="311.69" x2="216.66" y2="311.06" style="fill:none;stroke:#000;stroke-linecap:round;stroke-miterlimit:10;stroke-width:10px"/><line x1="202.19" y1="278.2" x2="265.73" y2="277.57" style="fill:none;stroke:#000;stroke-linecap:round;stroke-miterlimit:10;stroke-width:10px"/><line x1="256.5" y1="311.71" x2="306" y2="311.04" style="fill:none;stroke:#000;stroke-linecap:round;stroke-miterlimit:10;stroke-width:10px"/><line x1="64.47" y1="311.53" x2="107.3" y2="311.22" style="fill:none;stroke:#000;stroke-linecap:round;stroke-miterlimit:10;stroke-width:10px"/><path d="M1105,1798" transform="translate(-330.5 -1450.04)" style="fill:none;stroke:#c1272d;stroke-miterlimit:10;stroke-width:10px"/><path d="M441.14,1693.36c-21-9.3-77.77-44.48,15.66-127.19a1.41,1.41,0,0,0,.33-.4c1.53-2.78,15.78-30.27-4.13-57.77,0,0,65,22,41,89" transform="translate(-330.5 -1450.04)" style="fill:none;stroke:#000;stroke-linecap:round;stroke-miterlimit:10;stroke-width:10px"/><path d="M495.81,1542.75c5.19-9.82,14.42-21.6,30.63-34.31a2.54,2.54,0,0,0,.82-1.12c2-5.44,13.89-42.14-21.26-52.32,0,0,106.22,12.8,72,130" transform="translate(-330.5 -1450.04)" style="fill:none;stroke:#000;stroke-linecap:round;stroke-miterlimit:10;stroke-width:10px"/><path d="M566,1592c58-24,38-64,38-64s69.67,59.45,27.26,166.71" transform="translate(-330.5 -1450.04)" style="fill:none;stroke:#000;stroke-linecap:round;stroke-miterlimit:10;stroke-width:10px"/><path d="M573.57,1674.12a128.07,128.07,0,0,1-2.9,22.92" transform="translate(-330.5 -1450.04)" style="fill:none;stroke:#000;stroke-linecap:round;stroke-miterlimit:10;stroke-width:10px"/><path d="M462.93,1694.76c-1.55-18-.7-60.28,39.07-72.76,0,0-22,43,0,60,0,0,58-47,30-91,0,0,23.27,13.3,35,43.26" transform="translate(-330.5 -1450.04)" style="fill:none;stroke:#000;stroke-linecap:round;stroke-miterlimit:10;stroke-width:10px"/><line x1="314" y1="85.46" x2="358" y2="58.46" style="fill:#fbb03b;stroke:#fbb03b;stroke-linecap:round;stroke-miterlimit:10;stroke-width:10px"/><line x1="332.38" y1="144.07" x2="383.62" y2="137.85" style="fill:#fbb03b;stroke:#fbb03b;stroke-linecap:round;stroke-miterlimit:10;stroke-width:10px"/><line x1="340" y1="193.55" x2="390" y2="206.37" style="fill:#fbb03b;stroke:#fbb03b;stroke-linecap:round;stroke-miterlimit:10;stroke-width:10px"/><line x1="81" y1="81.46" x2="37" y2="54.46" style="fill:none;stroke:#fbb03b;stroke-linecap:round;stroke-miterlimit:10;stroke-width:10px"/><line x1="62.63" y1="140.07" x2="11.38" y2="133.85" style="fill:none;stroke:#fbb03b;stroke-linecap:round;stroke-miterlimit:10;stroke-width:10px"/><line x1="55.01" y1="189.55" x2="5" y2="202.37" style="fill:none;stroke:#fbb03b;stroke-linecap:round;stroke-miterlimit:10;stroke-width:10px"/></svg>