<svg id="hive" xmlns="http://www.w3.org/2000/svg" viewBox="0 0 264.52 276.06"><title>hive_icon</title><polygon points="161.21 101.46 111.21 101.46 86.21 144.76 111.21 188.06 161.21 188.06 186.21 144.76 161.21 101.46" style="fill:#fbb03b;stroke:#fbb03b;stroke-miterlimit:10;stroke-width:4px"/><polygon points="161.21 15.46 111.21 15.46 86.21 58.76 111.21 102.06 161.21 102.06 186.21 58.76 161.21 15.46" style="fill:#fbb03b;stroke:#fbb03b;stroke-miterlimit:10;stroke-width:4px"/><polygon points="237.21 60.46 187.21 60.46 162.21 103.76 187.21 147.06 237.21 147.06 262.21 103.76 237.21 60.46" style="fill:#fbb03b;stroke:#fbb03b;stroke-miterlimit:10;stroke-width:4px"/><polygon points="11.21 101.76 36.21 58.46 86.21 58.46 111.21 101.76 86.21 145.06 36.21 145.06 11.21 101.76" style="fill:#fbb03b;stroke:#fbb03b;stroke-miterlimit:10;stroke-width:4px"/><polyline points="141.71 28.26 118.61 28.26 107.07 48.26" style="fill:#fbb03b;stroke:#fbb03b;stroke-miterlimit:10;stroke-width:4px"/><polyline points="65.71 71.26 42.61 71.26 31.07 91.26" style="fill:#fbb03b;stroke:#fbb03b;stroke-miterlimit:10;stroke-width:4px"/><polygon points="88.21 144.46 38.21 144.46 13.21 187.76 38.21 231.06 88.21 231.06 113.21 187.76 88.21 144.46" style="fill:#fbb03b;stroke:#fbb03b;stroke-miterlimit:10;stroke-width:4px"/><polygon points="161.21 187.46 111.21 187.46 86.21 230.76 111.21 274.06 161.21 274.06 186.21 230.76 161.21 187.46" style="fill:#fbb03b;stroke:#fbb03b;stroke-miterlimit:10;stroke-width:4px"/><polygon points="155.77 91 105.77 91 80.77 134.3 105.77 177.6 155.77 177.6 180.77 134.3 155.77 91" style="fill:none;stroke:#000;stroke-miterlimit:10;stroke-width:10px"/><polygon points="155.77 5 105.77 5 80.77 48.3 105.77 91.6 155.77 91.6 180.77 48.3 155.77 5" style="fill:none;stroke:#000;stroke-miterlimit:10;stroke-width:10px"/><polygon points="231.77 50 181.77 50 156.77 93.3 181.77 136.6 231.77 136.6 256.77 93.3 231.77 50" style="fill:none;stroke:#000;stroke-miterlimit:10;stroke-width:10px"/><polygon points="5.77 91.3 30.77 48 80.77 48 105.77 91.3 80.77 134.6 30.77 134.6 5.77 91.3" style="fill:none;stroke:#000;stroke-miterlimit:10;stroke-width:10px"/><polyline points="136.27 17.8 113.18 17.8 101.63 37.8" style="fill:none;stroke:#000;stroke-miterlimit:10;stroke-width:4px"/><polyline points="60.27 60.8 37.18 60.8 25.63 80.8" style="fill:none;stroke:#000;stroke-miterlimit:10;stroke-width:4px"/><polygon points="82.77 134 32.77 134 7.77 177.3 32.77 220.6 82.77 220.6 107.77 177.3 82.77 134" style="fill:none;stroke:#000;stroke-miterlimit:10;stroke-width:10px"/><polygon points="155.77 177 105.77 177 80.77 220.3 105.77 263.6 155.77 263.6 180.77 220.3 155.77 177" style="fill:none;stroke:#000;stroke-miterlimit:10;stroke-width:10px"/><polyline points="136.27 17.8 113.18 17.8 101.63 37.8" style="fill:none;stroke:#000;stroke-miterlimit:10;stroke-width:4px"/><polyline points="60.27 60.8 37.18 60.8 25.63 80.8" style="fill:none;stroke:#000;stroke-miterlimit:10;stroke-width:4px"/><polyline points="60.27 148.8 37.18 148.8 25.63 168.8" style="fill:none;stroke:#000;stroke-miterlimit:10;stroke-width:4px"/></svg>