<svg id="final_ris" data-name="final ris" xmlns="http://www.w3.org/2000/svg" viewBox="0 0 236.24 414.37"><title>iris_icon</title><line x1="127.1" y1="346.53" x2="128.1" y2="237.53" style="fill:#7ac943;stroke:#7ac943;stroke-miterlimit:10;stroke-width:8px"/><path d="M512.14,558.85c-12-163-115-164-115-164,80,46,88,164,88,164Z" transform="translate(-372.9 -144.47)" style="fill:#7ac943"/><path d="M510,540c6.7-36.64,33-107.95,91-141.3,0,0-70,1.82-102,89.3" transform="translate(-372.9 -144.47)" style="fill:#7ac943"/><path d="M608.11,311.09c0,22.72-25.25,42.79-50.27,52.6a4.55,4.55,0,0,1-1.65.31,4.51,4.51,0,0,1-4-6.56c9.54-18.75,11.35-36,5.43-51.16a53.11,53.11,0,0,1,.57,7.71c0,22.92-29.32,51.84-51.38,71.6-1.62,1.45-3.29,3-3.79,3.46a3.81,3.81,0,0,1-3.15,1.63,4.09,4.09,0,0,1-1-.12C495,389.65,479.59,376,467.8,363c-10.82-11.93-23.46-28.45-26.37-43.05-3,13.24-.86,27.33,6.32,42.61a5.25,5.25,0,0,1-6.82,7.09C416.88,359.36,392.6,338.79,392.6,316c0-16.31,7.78-32.58,20.82-43.55A61.6,61.6,0,0,1,426.74,264a22.24,22.24,0,0,1-.67-10.83c2.85-15.66,11.83-25.43,27.41-29.78a140.11,140.11,0,0,1-2.06-14.89c-.57-6.47-.64-11.58-.63-14,0-6.37.34-7.79,2-9l2.69-1.9,1.94,2.11,1.35.73a112.77,112.77,0,0,1,20.75,13.78v-32.7l6,4.62a83.35,83.35,0,0,1,27.38,39c9.89-9.63,22-19,27.36-23.15,1.11-.86,2.26-1.75,2.63-2.06l2.08-2.32,2.75,1.89c1.65,1.16,2,2.58,2,9,0,2.47-.06,7.58-.63,14A143.94,143.94,0,0,1,547,223.39c18.48,5,30.66,16.69,30.66,29.93a26.66,26.66,0,0,1-6.13,16.8c2.59,1,5.07,2.13,7.43,3.3C598,282.85,608.11,295.88,608.11,311.09Z" transform="translate(-372.9 -144.47)" style="fill:#a37fcf;stroke:#a37fcf;stroke-miterlimit:10;stroke-width:0.5px"/><polygon points="103.1 118.05 103.1 118.05 103.1 118.05 103.1 118.05" style="fill:#a37fcf;stroke:#a37fcf;stroke-miterlimit:10;stroke-width:0.5px"/><line x1="118.1" y1="342.53" x2="119.1" y2="233.53" style="fill:none;stroke:#000;stroke-miterlimit:10;stroke-width:8px"/><path d="M503.14,554.85c-12-163-115-164-115-164,80,46,88,164,88,164Z" transform="translate(-372.9 -144.47)" style="fill:none;stroke:#000;stroke-miterlimit:10;stroke-width:8px"/><path d="M483.14,251.85" transform="translate(-372.9 -144.47)" style="fill:none;stroke:#000;stroke-miterlimit:10;stroke-width:8px"/><path d="M529.14,244.85" transform="translate(-372.9 -144.47)" style="fill:none;stroke:#000;stroke-miterlimit:10;stroke-width:8px"/><path d="M562.14,249.85" transform="translate(-372.9 -144.47)" style="fill:none;stroke:#000;stroke-miterlimit:10;stroke-width:8px"/><path d="M538.23,207.94c20.74,4.38,33.91,16.54,33.91,29.41,0,6.64-2.83,12.79-7.62,17.8" transform="translate(-372.9 -144.47)" style="fill:none;stroke:#000;stroke-miterlimit:10;stroke-width:8px"/><path d="M551.14,303c0,31-57.87,76.69-59,78.89s-60-47.88-60-78.89,26.64-56.13,59.5-56.13S551.14,272,551.14,303Z" transform="translate(-372.9 -144.47)" style="fill:none;stroke:#000;stroke-miterlimit:10;stroke-width:8px"/><path d="M506.14,246.85c53.7,3.12,99,21.41,99,53,0,20.95-23.5,42.06-51.84,53.17a.88.88,0,0,1-1.1-1.23c38.41-75.48-46.08-105.27-46.08-105.27" transform="translate(-372.9 -144.47)" style="fill:none;stroke:#000;stroke-miterlimit:10;stroke-width:8px"/><path d="M466.21,247.3C408,237.16,380,274.56,380,305.16c0,21.23,22.41,42.62,49.86,54.35a1.7,1.7,0,0,0,2.18-2.3c-15.2-32.34-7.95-56.11,4-73.21" transform="translate(-372.9 -144.47)" style="fill:none;stroke:#000;stroke-miterlimit:10;stroke-width:8px"/><path d="M479,250.18c-4.41-1.21-8.67-2.16-12.78-2.88" transform="translate(-372.9 -144.47)" style="fill:none;stroke:#000;stroke-miterlimit:10;stroke-width:8px"/><path d="M499.72,204.36c13-16.06,40.64-36,41.64-37.16s1.57,37.17-8.31,55.31-25.34,28.79-34.55,23.77S479.14,229.85,499.72,204.36Z" transform="translate(-372.9 -144.47)" style="fill:none;stroke:#000;stroke-miterlimit:10;stroke-width:8px"/><path d="M417.67,250.07a20,20,0,0,1-1.53-12.22c2.71-14.93,11.15-25.76,30.11-29.91" transform="translate(-372.9 -144.47)" style="fill:none;stroke:#000;stroke-miterlimit:10;stroke-width:8px"/><path d="M504,199a85.73,85.73,0,0,0-30-46.37h0V189" transform="translate(-372.9 -144.47)" style="fill:none;stroke:#000;stroke-miterlimit:10;stroke-width:8px"/><path d="M490.74,218.17" transform="translate(-372.9 -144.47)" style="fill:none;stroke:#000;stroke-miterlimit:10;stroke-width:8px"/><path d="M490.74,218.17a72.8,72.8,0,0,0-5.64-13.81c-13-24.51-40.63-36-41.64-37.16s-1.56,37.17,8.31,55.31,25.35,28.79,34.55,23.77a11.13,11.13,0,0,0,4.82-5.52" transform="translate(-372.9 -144.47)" style="fill:none;stroke:#000;stroke-miterlimit:10;stroke-width:8px"/><path d="M501,536c6.7-36.64,33-107.95,91-141.3,0,0-70,1.82-102,89.3" transform="translate(-372.9 -144.47)" style="fill:none;stroke:#000;stroke-miterlimit:10;stroke-width:8px"/><path d="M522.14,284.24c0,20.66-30.15,51.09-30.72,52.56s-31.28-31.9-31.28-52.56,13.88-37.39,31-37.39S522.14,263.59,522.14,284.24Z" transform="translate(-372.9 -144.47)" style="fill:#442978;stroke:#000;stroke-miterlimit:10;stroke-width:8px"/></svg>